<?xml version="1.0" ?><svg height="512" preserveAspectRatio="xMidYMid" viewBox="0 0 512 512" width="512" xmlns="http://www.w3.org/2000/svg" xmlns:xlink="http://www.w3.org/1999/xlink"><defs><style>
      .cls-1 {
        fill: #fff;
      }

      .cls-2 {
        fill: #ffac1e;
      }

      .cls-2, .cls-3 {
        fill-rule: evenodd;
      }

      .cls-3 {
        fill: #000;
        opacity: 0.1;
      }
    </style></defs><circle class="cls-1" cx="256" cy="256" r="256"/><path class="cls-2" d="M256.000,512.000 C248.096,512.000 240.280,511.622 232.559,510.921 C226.915,501.131 201.566,481.325 223.586,457.226 C261.135,416.133 458.861,447.806 460.000,286.661 C460.922,156.258 203.310,69.098 95.343,235.379 C11.332,364.766 128.657,464.212 184.860,501.974 C78.089,471.148 -0.000,372.698 -0.000,256.000 C-0.000,114.615 114.615,-0.000 256.000,-0.000 C397.385,-0.000 512.000,114.615 512.000,256.000 C512.000,397.385 397.385,512.000 256.000,512.000 ZM319.490,216.428 C337.893,233.950 318.733,257.478 303.878,248.757 C270.919,229.409 225.073,235.961 221.356,296.694 C218.247,347.483 292.769,361.190 304.721,324.431 C313.573,297.208 347.611,318.094 335.102,342.401 C318.542,374.579 260.763,401.175 213.613,358.410 C182.866,330.523 175.373,264.927 212.434,225.346 C250.230,184.981 305.999,203.582 319.490,216.428 Z"/><path class="cls-3" d="M436.999,75.012 C536.959,174.972 536.959,337.039 436.999,436.999 C337.039,536.959 174.972,536.959 75.012,436.999 "/></svg>